<mxfile host="app.diagrams.net" agent="Mozilla/5.0 (Windows NT 10.0; Win64; x64) AppleWebKit/537.36 (KHTML, like Gecko) Chrome/131.0.0.0 Safari/537.36" version="25.0.3">
  <diagram name="Page-1" id="8aHB6hvuHtiXpSfHATfr">
    <mxGraphModel dx="880" dy="434" grid="1" gridSize="10" guides="1" tooltips="1" connect="1" arrows="1" fold="1" page="1" pageScale="1" pageWidth="850" pageHeight="1100" math="0" shadow="0">
      <root>
        <mxCell id="0" />
        <mxCell id="1" parent="0" />
        <mxCell id="ng24IIaDWpQQ-s1rTxBU-1" value="" style="ellipse;whiteSpace=wrap;html=1;" vertex="1" parent="1">
          <mxGeometry x="147" y="120" width="120" height="80" as="geometry" />
        </mxCell>
        <mxCell id="ng24IIaDWpQQ-s1rTxBU-2" value="USER" style="text;html=1;align=center;verticalAlign=middle;whiteSpace=wrap;rounded=0;fontStyle=1;fontSize=14;" vertex="1" parent="1">
          <mxGeometry x="177" y="145" width="60" height="30" as="geometry" />
        </mxCell>
        <mxCell id="ng24IIaDWpQQ-s1rTxBU-3" value="" style="endArrow=classic;html=1;rounded=0;exitX=0.425;exitY=1.013;exitDx=0;exitDy=0;exitPerimeter=0;" edge="1" parent="1" source="ng24IIaDWpQQ-s1rTxBU-1">
          <mxGeometry width="50" height="50" relative="1" as="geometry">
            <mxPoint x="207" y="350" as="sourcePoint" />
            <mxPoint x="87" y="280" as="targetPoint" />
          </mxGeometry>
        </mxCell>
        <mxCell id="ng24IIaDWpQQ-s1rTxBU-4" value="" style="endArrow=classic;html=1;rounded=0;entryX=0.5;entryY=0;entryDx=0;entryDy=0;" edge="1" parent="1" target="ng24IIaDWpQQ-s1rTxBU-6">
          <mxGeometry width="50" height="50" relative="1" as="geometry">
            <mxPoint x="217" y="200" as="sourcePoint" />
            <mxPoint x="327" y="280" as="targetPoint" />
          </mxGeometry>
        </mxCell>
        <mxCell id="ng24IIaDWpQQ-s1rTxBU-5" value="" style="ellipse;whiteSpace=wrap;html=1;" vertex="1" parent="1">
          <mxGeometry x="27" y="280" width="120" height="80" as="geometry" />
        </mxCell>
        <mxCell id="ng24IIaDWpQQ-s1rTxBU-6" value="" style="ellipse;whiteSpace=wrap;html=1;" vertex="1" parent="1">
          <mxGeometry x="440" y="280" width="120" height="80" as="geometry" />
        </mxCell>
        <mxCell id="ng24IIaDWpQQ-s1rTxBU-7" value="REGISTER" style="text;html=1;align=center;verticalAlign=middle;whiteSpace=wrap;rounded=0;" vertex="1" parent="1">
          <mxGeometry x="57" y="305" width="60" height="30" as="geometry" />
        </mxCell>
        <mxCell id="ng24IIaDWpQQ-s1rTxBU-8" value="LOGIN" style="text;html=1;align=center;verticalAlign=middle;whiteSpace=wrap;rounded=0;" vertex="1" parent="1">
          <mxGeometry x="470" y="305" width="60" height="30" as="geometry" />
        </mxCell>
        <mxCell id="ng24IIaDWpQQ-s1rTxBU-9" value="" style="ellipse;whiteSpace=wrap;html=1;" vertex="1" parent="1">
          <mxGeometry x="27" y="450" width="120" height="80" as="geometry" />
        </mxCell>
        <mxCell id="ng24IIaDWpQQ-s1rTxBU-10" value="" style="endArrow=classic;html=1;rounded=0;exitX=0.5;exitY=1;exitDx=0;exitDy=0;entryX=0.5;entryY=0;entryDx=0;entryDy=0;" edge="1" parent="1" source="ng24IIaDWpQQ-s1rTxBU-5" target="ng24IIaDWpQQ-s1rTxBU-9">
          <mxGeometry width="50" height="50" relative="1" as="geometry">
            <mxPoint x="207" y="550" as="sourcePoint" />
            <mxPoint x="257" y="500" as="targetPoint" />
          </mxGeometry>
        </mxCell>
        <mxCell id="ng24IIaDWpQQ-s1rTxBU-11" value="SAVE USER DATA TO DATABASE" style="text;html=1;align=center;verticalAlign=middle;whiteSpace=wrap;rounded=0;" vertex="1" parent="1">
          <mxGeometry x="57" y="475" width="60" height="30" as="geometry" />
        </mxCell>
        <mxCell id="ng24IIaDWpQQ-s1rTxBU-12" value="" style="ellipse;whiteSpace=wrap;html=1;" vertex="1" parent="1">
          <mxGeometry x="217" y="440" width="120" height="80" as="geometry" />
        </mxCell>
        <mxCell id="ng24IIaDWpQQ-s1rTxBU-13" value="" style="ellipse;whiteSpace=wrap;html=1;" vertex="1" parent="1">
          <mxGeometry x="447" y="440" width="120" height="80" as="geometry" />
        </mxCell>
        <mxCell id="ng24IIaDWpQQ-s1rTxBU-14" value="" style="ellipse;whiteSpace=wrap;html=1;" vertex="1" parent="1">
          <mxGeometry x="680" y="440" width="120" height="80" as="geometry" />
        </mxCell>
        <mxCell id="ng24IIaDWpQQ-s1rTxBU-15" value="NORMAL LOGIN" style="text;html=1;align=center;verticalAlign=middle;whiteSpace=wrap;rounded=0;" vertex="1" parent="1">
          <mxGeometry x="247" y="465" width="60" height="30" as="geometry" />
        </mxCell>
        <mxCell id="ng24IIaDWpQQ-s1rTxBU-16" value="GOOGLE LOGIN" style="text;html=1;align=center;verticalAlign=middle;whiteSpace=wrap;rounded=0;" vertex="1" parent="1">
          <mxGeometry x="477" y="465" width="60" height="30" as="geometry" />
        </mxCell>
        <mxCell id="ng24IIaDWpQQ-s1rTxBU-17" value="FACEBOOK LOGIN" style="text;html=1;align=center;verticalAlign=middle;whiteSpace=wrap;rounded=0;" vertex="1" parent="1">
          <mxGeometry x="710" y="465" width="60" height="30" as="geometry" />
        </mxCell>
        <mxCell id="ng24IIaDWpQQ-s1rTxBU-18" value="" style="endArrow=classic;html=1;rounded=0;exitX=0.5;exitY=1;exitDx=0;exitDy=0;entryX=0.5;entryY=0;entryDx=0;entryDy=0;" edge="1" parent="1" source="ng24IIaDWpQQ-s1rTxBU-6" target="ng24IIaDWpQQ-s1rTxBU-12">
          <mxGeometry width="50" height="50" relative="1" as="geometry">
            <mxPoint x="340" y="410" as="sourcePoint" />
            <mxPoint x="400" y="420" as="targetPoint" />
          </mxGeometry>
        </mxCell>
        <mxCell id="ng24IIaDWpQQ-s1rTxBU-19" value="" style="endArrow=classic;html=1;rounded=0;entryX=0.5;entryY=0;entryDx=0;entryDy=0;exitX=0.5;exitY=1;exitDx=0;exitDy=0;" edge="1" parent="1" source="ng24IIaDWpQQ-s1rTxBU-6" target="ng24IIaDWpQQ-s1rTxBU-13">
          <mxGeometry width="50" height="50" relative="1" as="geometry">
            <mxPoint x="340" y="410" as="sourcePoint" />
            <mxPoint x="390" y="360" as="targetPoint" />
          </mxGeometry>
        </mxCell>
        <mxCell id="ng24IIaDWpQQ-s1rTxBU-20" value="" style="endArrow=classic;html=1;rounded=0;entryX=0.5;entryY=0;entryDx=0;entryDy=0;exitX=0.5;exitY=1;exitDx=0;exitDy=0;" edge="1" parent="1" source="ng24IIaDWpQQ-s1rTxBU-6" target="ng24IIaDWpQQ-s1rTxBU-14">
          <mxGeometry width="50" height="50" relative="1" as="geometry">
            <mxPoint x="340" y="410" as="sourcePoint" />
            <mxPoint x="390" y="360" as="targetPoint" />
          </mxGeometry>
        </mxCell>
        <mxCell id="ng24IIaDWpQQ-s1rTxBU-21" value="" style="endArrow=classic;html=1;rounded=0;exitX=0.5;exitY=1;exitDx=0;exitDy=0;" edge="1" parent="1" source="ng24IIaDWpQQ-s1rTxBU-12">
          <mxGeometry width="50" height="50" relative="1" as="geometry">
            <mxPoint x="270" y="530" as="sourcePoint" />
            <mxPoint x="277" y="600" as="targetPoint" />
          </mxGeometry>
        </mxCell>
        <mxCell id="ng24IIaDWpQQ-s1rTxBU-22" value="" style="ellipse;whiteSpace=wrap;html=1;" vertex="1" parent="1">
          <mxGeometry x="217" y="600" width="120" height="80" as="geometry" />
        </mxCell>
        <mxCell id="ng24IIaDWpQQ-s1rTxBU-23" value="Validate Credentials" style="text;html=1;align=center;verticalAlign=middle;whiteSpace=wrap;rounded=0;" vertex="1" parent="1">
          <mxGeometry x="247" y="625" width="60" height="30" as="geometry" />
        </mxCell>
        <mxCell id="ng24IIaDWpQQ-s1rTxBU-24" value="" style="endArrow=classic;html=1;rounded=0;exitX=0.5;exitY=1;exitDx=0;exitDy=0;entryX=0.5;entryY=0;entryDx=0;entryDy=0;" edge="1" parent="1" target="ng24IIaDWpQQ-s1rTxBU-25">
          <mxGeometry width="50" height="50" relative="1" as="geometry">
            <mxPoint x="277" y="680" as="sourcePoint" />
            <mxPoint x="277" y="760" as="targetPoint" />
          </mxGeometry>
        </mxCell>
        <mxCell id="ng24IIaDWpQQ-s1rTxBU-25" value="" style="ellipse;whiteSpace=wrap;html=1;" vertex="1" parent="1">
          <mxGeometry x="337" y="840" width="120" height="80" as="geometry" />
        </mxCell>
        <mxCell id="ng24IIaDWpQQ-s1rTxBU-26" value="REDIRECT TO LANDING PAGE" style="text;html=1;align=center;verticalAlign=middle;whiteSpace=wrap;rounded=0;" vertex="1" parent="1">
          <mxGeometry x="367" y="865" width="60" height="30" as="geometry" />
        </mxCell>
        <mxCell id="ng24IIaDWpQQ-s1rTxBU-27" value="" style="endArrow=classic;html=1;rounded=0;exitX=0.5;exitY=1;exitDx=0;exitDy=0;" edge="1" parent="1">
          <mxGeometry width="50" height="50" relative="1" as="geometry">
            <mxPoint x="507" y="520" as="sourcePoint" />
            <mxPoint x="507" y="600" as="targetPoint" />
          </mxGeometry>
        </mxCell>
        <mxCell id="ng24IIaDWpQQ-s1rTxBU-28" value="" style="ellipse;whiteSpace=wrap;html=1;" vertex="1" parent="1">
          <mxGeometry x="447" y="600" width="120" height="80" as="geometry" />
        </mxCell>
        <mxCell id="ng24IIaDWpQQ-s1rTxBU-29" value="REDIRECT TO GOOGLE API" style="text;html=1;align=center;verticalAlign=middle;whiteSpace=wrap;rounded=0;" vertex="1" parent="1">
          <mxGeometry x="477" y="625" width="60" height="30" as="geometry" />
        </mxCell>
        <mxCell id="ng24IIaDWpQQ-s1rTxBU-30" value="" style="endArrow=classic;html=1;rounded=0;exitX=0.5;exitY=1;exitDx=0;exitDy=0;entryX=0.5;entryY=0;entryDx=0;entryDy=0;" edge="1" parent="1" target="ng24IIaDWpQQ-s1rTxBU-31">
          <mxGeometry width="50" height="50" relative="1" as="geometry">
            <mxPoint x="507" y="680" as="sourcePoint" />
            <mxPoint x="507" y="760" as="targetPoint" />
          </mxGeometry>
        </mxCell>
        <mxCell id="ng24IIaDWpQQ-s1rTxBU-31" value="" style="ellipse;whiteSpace=wrap;html=1;" vertex="1" parent="1">
          <mxGeometry x="560" y="760" width="120" height="80" as="geometry" />
        </mxCell>
        <mxCell id="ng24IIaDWpQQ-s1rTxBU-32" value="VALIDATE TOKEN" style="text;html=1;align=center;verticalAlign=middle;whiteSpace=wrap;rounded=0;" vertex="1" parent="1">
          <mxGeometry x="590" y="785" width="60" height="30" as="geometry" />
        </mxCell>
        <mxCell id="ng24IIaDWpQQ-s1rTxBU-33" value="" style="endArrow=classic;html=1;rounded=0;exitX=0.5;exitY=1;exitDx=0;exitDy=0;" edge="1" parent="1">
          <mxGeometry width="50" height="50" relative="1" as="geometry">
            <mxPoint x="740" y="520" as="sourcePoint" />
            <mxPoint x="740" y="600" as="targetPoint" />
          </mxGeometry>
        </mxCell>
        <mxCell id="ng24IIaDWpQQ-s1rTxBU-34" value="" style="ellipse;whiteSpace=wrap;html=1;" vertex="1" parent="1">
          <mxGeometry x="680" y="600" width="120" height="80" as="geometry" />
        </mxCell>
        <mxCell id="ng24IIaDWpQQ-s1rTxBU-35" value="REDIRECT TO FACEBOOK API" style="text;html=1;align=center;verticalAlign=middle;whiteSpace=wrap;rounded=0;" vertex="1" parent="1">
          <mxGeometry x="710" y="625" width="60" height="30" as="geometry" />
        </mxCell>
        <mxCell id="ng24IIaDWpQQ-s1rTxBU-36" value="" style="endArrow=classic;html=1;rounded=0;exitX=0.433;exitY=1.013;exitDx=0;exitDy=0;exitPerimeter=0;entryX=0.5;entryY=0;entryDx=0;entryDy=0;" edge="1" parent="1" source="ng24IIaDWpQQ-s1rTxBU-34" target="ng24IIaDWpQQ-s1rTxBU-31">
          <mxGeometry width="50" height="50" relative="1" as="geometry">
            <mxPoint x="340" y="710" as="sourcePoint" />
            <mxPoint x="390" y="660" as="targetPoint" />
          </mxGeometry>
        </mxCell>
        <mxCell id="ng24IIaDWpQQ-s1rTxBU-40" value="" style="endArrow=classic;html=1;rounded=0;exitX=0;exitY=0.5;exitDx=0;exitDy=0;entryX=0.5;entryY=0;entryDx=0;entryDy=0;" edge="1" parent="1" source="ng24IIaDWpQQ-s1rTxBU-31" target="ng24IIaDWpQQ-s1rTxBU-25">
          <mxGeometry width="50" height="50" relative="1" as="geometry">
            <mxPoint x="340" y="910" as="sourcePoint" />
            <mxPoint x="390" y="860" as="targetPoint" />
          </mxGeometry>
        </mxCell>
      </root>
    </mxGraphModel>
  </diagram>
</mxfile>
